<?xml version="1.0" standalone="no"?>
<!DOCTYPE svg PUBLIC "-//W3C//DTD SVG 20010904//EN"
 "http://www.w3.org/TR/2001/REC-SVG-20010904/DTD/svg10.dtd">
<svg version="1.0" xmlns="http://www.w3.org/2000/svg"
 width="512.000000pt" height="512.000000pt" viewBox="0 0 512.000000 512.000000"
 preserveAspectRatio="xMidYMid meet">
<metadata>
Created by potrace 1.11, written by Peter Selinger 2001-2013
</metadata>
<g transform="translate(0.000000,512.000000) scale(0.100000,-0.100000)"
fill="#000000" stroke="none">
<path d="M2750 4325 c-94 -15 -217 -51 -306 -91 -75 -33 -213 -123 -286 -186
-58 -50 -160 -170 -203 -238 -51 -81 -782 -1402 -816 -1475 -152 -324 -116
-737 93 -1056 189 -291 472 -458 845 -500 232 -26 503 38 711 168 85 53 212
169 277 253 48 62 844 1379 895 1480 132 262 153 593 55 880 -177 522 -720
850 -1265 765z m373 -209 c355 -68 646 -358 722 -721 34 -161 17 -363 -43
-517 -35 -90 -454 -790 -489 -818 -38 -30 -88 -25 -220 21 -447 157 -959 458
-1257 739 -63 60 -86 95 -86 134 0 22 250 486 378 701 143 242 397 421 658
464 80 14 257 12 337 -3z"/>
<path d="M2830 3754 c-106 -29 -187 -90 -250 -190 -36 -58 -44 -64 -73 -64
-50 0 -136 -28 -189 -62 -62 -39 -104 -88 -138 -160 -90 -189 -9 -403 188
-500 l67 -33 443 -3 c501 -3 512 -2 600 68 36 28 60 58 82 104 30 61 32 71 28
143 -7 120 -60 201 -173 261 -49 27 -49 28 -62 96 -46 251 -282 405 -523 340z"/>
</g>
</svg>
